<?xml version="1.0" standalone="no"?>
<!DOCTYPE svg PUBLIC "-//W3C//DTD SVG 20010904//EN"
 "http://www.w3.org/TR/2001/REC-SVG-20010904/DTD/svg10.dtd">
<svg version="1.0" xmlns="http://www.w3.org/2000/svg"
 width="256.000000pt" height="256.000000pt" viewBox="0 0 256.000000 256.000000"
 preserveAspectRatio="xMidYMid meet">
<metadata>
Created by potrace 1.14, written by Peter Selinger 2001-2017
</metadata>
<g transform="translate(0.000000,256.000000) scale(0.100000,-0.100000)"
fill="#000000" stroke="none">
<path d="M0 1280 l0 -1280 1280 0 1280 0 0 1280 0 1280 -1280 0 -1280 0 0
-1280z m1357 1101 c17 -11 34 -29 38 -40 5 -16 12 -20 30 -15 32 8 81 -22 96
-58 7 -17 25 -35 45 -43 19 -8 39 -25 46 -39 6 -15 15 -26 19 -26 19 0 69 -54
80 -87 19 -57 -2 -110 -52 -132 l-40 -18 51 -37 c28 -20 59 -50 69 -67 42 -69
34 -152 -21 -215 -51 -58 -79 -67 -218 -74 -112 -4 -125 -7 -128 -24 -3 -14 0
-17 12 -13 15 6 46 -16 46 -33 0 -20 -42 -39 -67 -29 -25 9 -25 8 -18 -23 14
-66 17 -181 5 -204 -8 -14 -10 -37 -5 -61 13 -74 17 -195 6 -206 -14 -14 -14
-94 -1 -102 6 -3 10 -42 10 -85 0 -43 -4 -82 -10 -85 -6 -4 -10 -88 -10 -220
0 -181 -2 -216 -16 -229 -17 -17 -42 -20 -61 -8 -6 4 -13 32 -15 62 -3 49 -6
55 -26 58 -17 3 -25 -2 -29 -17 -4 -17 -13 -21 -44 -21 l-39 0 0 95 0 95 40 0
c34 0 40 -3 40 -21 0 -16 5 -20 28 -17 l27 3 3 99 c2 59 -1 103 -8 110 -13 13
-13 183 0 191 14 8 13 68 -1 82 -14 14 -13 173 1 187 14 14 12 70 -1 83 -14
14 -12 172 2 189 22 27 6 48 -36 48 -36 1 -40 4 -40 26 0 18 6 26 23 28 14 2
22 10 22 23 0 18 -8 19 -107 19 -131 0 -173 11 -223 56 -47 43 -64 89 -58 161
5 63 25 94 92 142 61 44 69 36 9 -9 -73 -55 -88 -81 -88 -154 0 -53 4 -68 28
-99 49 -64 89 -78 238 -80 104 -2 126 0 113 10 -12 9 -54 12 -133 10 -102 -2
-120 1 -151 19 -52 30 -80 78 -80 136 0 84 42 138 108 138 62 0 100 -31 123
-99 8 -22 8 -20 4 8 -7 47 -27 74 -66 94 l-34 16 28 10 c16 6 48 11 73 11 82
0 139 -39 165 -112 14 -40 35 -54 23 -15 -3 12 -26 61 -50 110 -91 180 -89
258 6 316 40 24 24 29 -21 6 -74 -39 -90 -139 -39 -251 29 -64 29 -65 7 -57
-12 4 -59 8 -103 8 l-82 0 34 38 c19 20 34 45 34 55 0 12 -6 8 -19 -13 -34
-55 -52 -66 -94 -53 -54 17 -82 51 -82 102 0 49 24 91 65 114 16 9 34 27 40
40 5 13 26 30 45 38 20 8 40 25 45 38 13 36 60 68 92 64 20 -3 30 1 39 20 28
51 109 67 166 33z"/>
<path d="M1263 2383 c-21 -4 -73 -56 -73 -73 0 -4 -17 -6 -39 -3 -46 6 -81
-21 -81 -62 0 -19 -5 -25 -22 -25 -13 0 -39 -15 -58 -34 -19 -19 -52 -51 -72
-70 -32 -28 -38 -41 -38 -74 0 -51 31 -92 70 -92 36 0 75 31 67 53 -10 27 -35
20 -39 -10 -4 -39 -39 -42 -67 -7 -11 15 -21 36 -21 48 0 31 36 85 65 98 22
10 30 8 53 -9 15 -11 32 -30 38 -42 18 -36 21 -33 17 16 -8 80 49 144 149 168
45 11 48 13 20 14 -30 1 -33 3 -27 24 12 39 46 67 81 67 46 0 63 -9 79 -41 22
-41 19 -49 -17 -50 -31 -1 -30 -2 9 -9 57 -12 95 -33 132 -75 27 -31 31 -43
31 -93 l1 -57 14 32 c19 45 59 69 90 55 29 -13 65 -68 65 -98 0 -12 -10 -33
-21 -48 -28 -35 -63 -32 -67 7 -4 30 -29 37 -39 10 -8 -22 31 -53 67 -53 39 0
70 41 70 92 0 33 -6 46 -36 73 -51 46 -72 67 -91 88 -9 9 -27 17 -40 17 -19 0
-23 5 -23 28 0 49 -45 75 -97 58 -16 -5 -23 -2 -27 12 -14 43 -72 74 -123 65z
m-93 -98 c10 -12 9 -16 -6 -22 -11 -3 -31 -15 -46 -25 -14 -10 -29 -18 -32
-18 -14 0 -4 42 14 60 24 24 53 26 70 5z m308 -1 c12 -8 22 -26 22 -40 0 -27
-12 -31 -29 -10 -6 8 -25 19 -41 26 -24 10 -28 15 -19 26 15 18 39 18 67 -2z
m-408 -81 c0 -6 -22 -74 -26 -81 -5 -8 -54 32 -54 44 0 7 10 20 22 28 23 16
58 22 58 9z m498 -9 c29 -20 28 -38 -3 -58 -24 -16 -25 -16 -40 20 -22 53 -3
70 43 38z"/>
<path d="M1109 2263 c-13 -15 -12 -15 11 -3 34 17 36 20 18 20 -9 0 -22 -7
-29 -17z"/>
<path d="M1454 2265 c11 -8 22 -12 25 -9 6 6 -19 24 -34 24 -5 -1 -1 -7 9 -15z"/>
<path d="M1020 2180 c-12 -7 -12 -12 -2 -22 10 -10 15 -10 22 2 19 29 9 39
-20 20z"/>
<path d="M1541 2169 c7 -14 14 -18 21 -11 13 13 2 32 -18 32 -12 0 -13 -4 -3
-21z"/>
<path d="M1280 2250 c0 -27 5 -50 10 -50 6 0 10 23 10 50 0 28 -4 50 -10 50
-5 0 -10 -22 -10 -50z"/>
<path d="M1158 2230 c-64 -34 -78 -62 -78 -152 0 -52 -5 -89 -16 -109 -8 -17
-14 -32 -12 -34 2 -1 27 -5 57 -8 51 -6 53 -6 46 16 -27 85 -35 126 -29 152
13 62 36 96 88 126 l51 29 -35 -1 c-19 0 -51 -9 -72 -19z"/>
<path d="M1354 2231 c54 -29 67 -41 87 -86 24 -52 24 -92 -1 -162 -11 -31 -19
-57 -17 -59 1 -1 27 1 58 3 l56 5 -19 37 c-16 29 -19 49 -14 102 4 53 1 72
-14 96 -27 45 -76 75 -128 80 l-47 4 39 -20z"/>
<path d="M1354 2197 c53 -30 79 -79 72 -137 -4 -25 -34 -103 -67 -173 -34 -70
-59 -130 -55 -134 3 -3 7 -4 9 -2 1 2 13 26 27 53 14 27 37 59 52 70 33 24
129 33 172 16 l30 -11 -31 -19 c-35 -21 -63 -57 -63 -80 0 -8 8 0 17 18 32 66
123 84 173 34 74 -75 52 -197 -45 -250 -24 -13 -54 -16 -146 -15 -79 2 -121
-1 -133 -10 -13 -10 9 -12 115 -10 149 2 182 13 233 76 23 29 31 49 34 95 5
69 -18 109 -93 162 -27 19 -66 51 -87 71 -45 43 -51 34 -9 -13 l29 -33 -82 0
c-44 0 -91 -4 -104 -8 -23 -8 -22 -7 9 55 39 75 45 157 16 202 -20 29 -73 66
-97 66 -8 0 3 -10 24 -23z"/>
<path d="M1063 1851 c31 -38 41 -69 35 -112 -4 -28 -3 -29 22 -24 38 8 80 -26
64 -52 -12 -19 -26 -21 -58 -8 -14 6 -17 4 -15 -10 6 -30 33 -40 69 -25 43 18
65 52 51 79 -8 15 -7 23 4 34 20 21 3 75 -35 112 -26 25 -40 30 -97 33 l-67 5
27 -32z"/>
<path d="M1420 1873 c-28 -10 -53 -38 -71 -78 -17 -37 -17 -41 -1 -58 13 -15
14 -21 3 -39 -11 -17 -9 -23 11 -45 32 -35 56 -46 84 -39 15 4 24 14 24 26 0
23 -4 24 -29 8 -22 -13 -51 3 -51 28 0 23 45 46 75 38 25 -6 27 -5 20 16 -12
37 5 92 37 122 l30 28 -58 -1 c-33 0 -66 -3 -74 -6z"/>
<path d="M922 1835 c-83 -36 -80 -173 5 -229 42 -28 146 -46 157 -28 3 6 2 13
-4 17 -5 3 -10 22 -10 42 0 30 -3 34 -17 28 -40 -16 -54 -17 -78 -1 -48 32
-41 106 11 106 29 0 42 -25 26 -51 -22 -35 -4 -41 28 -9 39 39 15 107 -47 131
-30 11 -31 11 -71 -6z"/>
<path d="M1584 1840 c-30 -12 -64 -58 -64 -86 0 -13 9 -33 20 -44 25 -25 45
-18 28 9 -16 26 -3 51 26 51 48 0 57 -68 15 -105 -18 -17 -42 -17 -81 0 -13 5
-15 2 -11 -14 3 -12 -2 -32 -11 -46 -15 -23 -15 -26 -1 -31 21 -8 104 5 136
22 90 46 105 186 26 234 -35 22 -50 23 -83 10z"/>
<path d="M966 1739 c-11 -17 -12 -27 -4 -45 11 -23 25 -29 58 -24 18 2 60 40
60 53 0 5 -9 -2 -21 -17 -12 -15 -30 -26 -45 -26 -30 0 -44 29 -21 42 9 4 14
15 11 23 -8 21 -20 19 -38 -6z"/>
<path d="M1583 1744 c-3 -9 0 -20 7 -24 19 -12 4 -40 -22 -40 -17 0 -19 -3 -9
-9 33 -21 74 18 64 60 -7 24 -32 32 -40 13z"/>
<path d="M1500 1733 c0 -6 9 -21 21 -34 l20 -24 -17 30 c-24 39 -24 40 -24 28z"/>
<path d="M1247 1723 c-17 -16 -3 -23 43 -23 38 0 50 4 50 15 0 11 -11 15 -43
15 -24 0 -47 -3 -50 -7z"/>
<path d="M1096 1684 c-19 -19 -21 -68 -3 -82 43 -35 129 -14 161 39 27 45 14
45 -31 -1 -46 -45 -88 -53 -117 -21 -26 29 -11 54 29 47 36 -7 50 1 34 21 -15
18 -54 17 -73 -3z"/>
<path d="M1414 1686 c-9 -24 4 -37 25 -24 39 24 68 -14 35 -46 -28 -29 -73
-20 -117 24 -44 44 -62 46 -31 2 46 -63 137 -77 170 -27 23 36 1 79 -44 83
-22 2 -34 -2 -38 -12z"/>
<path d="M1230 1515 c0 -13 11 -15 63 -13 34 2 62 8 62 13 0 6 -28 11 -62 13
-52 2 -63 0 -63 -13z"/>
<path d="M1283 1482 c-20 -3 -23 -10 -23 -48 0 -42 1 -44 30 -44 29 0 30 2 30
44 0 49 -4 54 -37 48z"/>
<path d="M1174 1468 c-8 -13 5 -28 25 -28 17 0 41 18 41 30 0 10 -60 8 -66 -2z"/>
<path d="M1340 1470 c0 -14 29 -32 47 -28 32 6 21 32 -14 34 -18 1 -33 -2 -33
-6z"/>
<path d="M1247 1373 c-11 -10 -8 -163 3 -164 6 0 27 -1 48 -2 l37 0 3 86 3 87
-44 0 c-24 0 -47 -3 -50 -7z"/>
<path d="M1262 1158 c2 -28 8 -34 31 -36 25 -3 27 -1 27 32 0 33 -2 36 -31 36
-28 0 -30 -2 -27 -32z"/>
<path d="M1247 1104 c-4 -4 -7 -42 -7 -85 l0 -77 46 -4 c28 -2 48 1 51 8 2 6
3 44 1 85 l-3 74 -40 3 c-23 2 -44 0 -48 -4z"/>
<path d="M1260 885 c0 -32 2 -35 30 -35 28 0 30 3 30 35 0 32 -2 35 -30 35
-28 0 -30 -3 -30 -35z"/>
<path d="M1247 834 c-4 -4 -7 -42 -7 -85 l0 -77 46 -4 c28 -2 48 1 51 8 2 6 3
44 1 85 l-3 74 -40 3 c-23 2 -44 0 -48 -4z"/>
<path d="M1262 438 l3 -213 28 -3 27 -3 0 215 0 216 -30 0 -30 0 2 -212z"/>
<path d="M1124 457 c-3 -8 -4 -45 -2 -83 3 -66 4 -69 28 -69 25 0 25 1 25 80
0 75 -1 80 -23 83 -12 2 -24 -3 -28 -11z"/>
<path d="M1195 420 c-4 -6 5 -10 19 -10 14 0 26 5 26 10 0 6 -9 10 -19 10 -11
0 -23 -4 -26 -10z"/>
<path d="M1203 383 c9 -2 23 -2 30 0 6 3 -1 5 -18 5 -16 0 -22 -2 -12 -5z"/>
<path d="M1195 350 c3 -5 15 -10 26 -10 10 0 19 5 19 10 0 6 -12 10 -26 10
-14 0 -23 -4 -19 -10z"/>
</g>
</svg>
